<?xml version="1.0" encoding="UTF-8" standalone="no"?>
<!-- Uploaded to: SVG Repo, www.svgrepo.com, Generator: SVG Repo Mixer Tools -->

<svg
   width="256"
   height="256"
   viewBox="0 0 1779.2 1779.2"
   version="1.1"
   id="svg6"
   sodipodi:docname="Firefox Final.svg"
   inkscape:version="1.3.2 (091e20e, 2023-11-25, custom)"
   xmlns:inkscape="http://www.inkscape.org/namespaces/inkscape"
   xmlns:sodipodi="http://sodipodi.sourceforge.net/DTD/sodipodi-0.dtd"
   xmlns:xlink="http://www.w3.org/1999/xlink"
   xmlns="http://www.w3.org/2000/svg"
   xmlns:svg="http://www.w3.org/2000/svg">
  <defs
     id="defs6">
    <linearGradient
       id="linearGradient7"
       x1="4810"
       x2="612"
       y1="417"
       y2="5392"
       gradientUnits="userSpaceOnUse"
       gradientTransform="matrix(0.99952283,0,0,0.99952283,0.40278445,97.120458)"
       inkscape:label="Auroral">
      <stop
         offset="0"
         stop-color="#88ffd1"
         id="stop13"
         style="stop-color:#ed08a3;stop-opacity:1;" />
      <stop
         offset="0.09945551"
         stop-color="#7bfcd6"
         id="stop14"
         style="stop-color:#c713ba;stop-opacity:1;" />
      <stop
         offset="0.19772908"
         stop-color="#57f3e2"
         id="stop15"
         style="stop-color:#a11ed1;stop-opacity:1;" />
      <stop
         offset="0.30241698"
         stop-color="#1ee5f5"
         id="stop16"
         style="stop-color:#7b29e8;stop-opacity:1;" />
      <stop
         offset="0.40120849"
         stop-color="#1ee5f5"
         id="stop25"
         style="stop-color:#682ef4;stop-opacity:1;" />
      <stop
         offset="0.5"
         stop-color="#0df"
         id="stop17"
         style="stop-color:#5433ff;stop-opacity:1;" />
      <stop
         offset="0.6010524"
         stop-color="#0df"
         id="stop24"
         style="stop-color:#4a49ff;stop-opacity:1;" />
      <stop
         offset="0.70210487"
         stop-color="#0df"
         id="stop18"
         style="stop-color:#3f5eff;stop-opacity:1;" />
      <stop
         offset="0.79859555"
         stop-color="#0df"
         id="stop19"
         style="stop-color:#2a88ff;stop-opacity:1;" />
      <stop
         offset="0.90460986"
         stop-color="#0df"
         id="stop20"
         style="stop-color:#15b3ff;stop-opacity:1;" />
      <stop
         offset="1"
         stop-color="#0df"
         id="stop23"
         style="stop-color:#00ddff;stop-opacity:1;" />
    </linearGradient>
    <linearGradient
       id="linearGradient7-1"
       x1="4810"
       x2="612"
       y1="417"
       y2="5392"
       gradientUnits="userSpaceOnUse"
       gradientTransform="matrix(0.99952283,0,0,0.99952283,0.40278445,97.120458)"
       inkscape:label="Original">
      <stop
         offset="0"
         stop-color="#88ffd1"
         id="stop1-6"
         style="stop-color:#9f1aff;stop-opacity:1;" />
      <stop
         offset="0.09868185"
         stop-color="#7bfcd6"
         id="stop2-0"
         style="stop-color:#9f1aff;stop-opacity:1;" />
      <stop
         offset="0.20353238"
         stop-color="#57f3e2"
         id="stop3-4"
         style="stop-color:#8a46e1;stop-opacity:1;" />
      <stop
         offset="0.29501024"
         stop-color="#1ee5f5"
         id="stop4-4"
         style="stop-color:#765dff;stop-opacity:1;" />
      <stop
         offset="0.3956407"
         stop-color="#0df"
         id="stop5-0"
         style="stop-color:#5d7dff;stop-opacity:1;" />
      <stop
         offset="0.49692822"
         stop-color="#0df"
         id="stop7"
         style="stop-color:#3e8cff;stop-opacity:1;" />
      <stop
         offset="0.60105723"
         stop-color="#0df"
         id="stop8"
         style="stop-color:#00a5ff;stop-opacity:1;" />
      <stop
         offset="0.7040717"
         stop-color="#0df"
         id="stop9"
         style="stop-color:#00b4ff;stop-opacity:1;" />
      <stop
         offset="0.79595369"
         stop-color="#0df"
         id="stop10"
         style="stop-color:#00c3ff;stop-opacity:1;" />
      <stop
         offset="0.90438545"
         stop-color="#0df"
         id="stop11"
         style="stop-color:#00c9ff;stop-opacity:1;" />
      <stop
         offset="1"
         stop-color="#9059ff"
         id="stop6-4"
         style="stop-color:#00ddff;stop-opacity:1;" />
    </linearGradient>
    <linearGradient
       inkscape:collect="always"
       xlink:href="#linearGradient7-1"
       id="linearGradient18"
       gradientUnits="userSpaceOnUse"
       gradientTransform="matrix(0.33116374,0,0,0.33116374,-31.992184,0.19927886)"
       x1="945.35504"
       y1="4610.292"
       x2="4306.2354"
       y2="1000.9113" />
  </defs>
  <sodipodi:namedview
     id="namedview6"
     pagecolor="#505050"
     bordercolor="#eeeeee"
     borderopacity="1"
     inkscape:showpageshadow="0"
     inkscape:pageopacity="0"
     inkscape:pagecheckerboard="0"
     inkscape:deskcolor="#505050"
     inkscape:zoom="1.1425"
     inkscape:cx="380.30635"
     inkscape:cy="496.71772"
     inkscape:window-width="1916"
     inkscape:window-height="2053"
     inkscape:window-x="2151"
     inkscape:window-y="1506"
     inkscape:window-maximized="0"
     inkscape:current-layer="svg6"
     showguides="true">
    <sodipodi:guide
       position="163.32495,2780"
       orientation="1,0"
       id="guide18"
       inkscape:locked="false" />
    <sodipodi:guide
       position="5396.675,2780"
       orientation="1,0"
       id="guide19"
       inkscape:locked="false" />
    <sodipodi:guide
       position="2798.085,102.98447"
       orientation="0,-1"
       id="guide20"
       inkscape:locked="false" />
  </sodipodi:namedview>
  <linearGradient
     id="a"
     x1="4810"
     x2="612"
     y1="417"
     y2="5392"
     gradientUnits="userSpaceOnUse"
     gradientTransform="matrix(0.99952283,0,0,0.99952283,0.40278445,97.120458)"
     inkscape:label="Startpage">
    <stop
       offset="0"
       stop-color="#88ffd1"
       id="stop1" />
    <stop
       offset=".04"
       stop-color="#7bfcd6"
       id="stop2" />
    <stop
       offset=".13"
       stop-color="#57f3e2"
       id="stop3" />
    <stop
       offset=".24"
       stop-color="#1ee5f5"
       id="stop4" />
    <stop
       offset=".29"
       stop-color="#0df"
       id="stop5" />
    <stop
       offset="1"
       stop-color="#9059ff"
       id="stop6" />
  </linearGradient>
  <path
     fill="url(#a)"
     d="m 5208.9162,1899.2602 c -120.9422,-287.8626 -353.8311,-577.7242 -544.7399,-679.6756 -30.9253,-17.8548 -69.027,-17.8548 -99.9523,0 -29.7929,19.9794 -45.0604,55.6035 -38.9814,90.9566 -79.9618,-99.9523 -162.9222,-191.9084 -247.8816,-286.8631 -182.858,-194.0612 -349.6599,-402.647 -498.7619,-623.7022 l -56.9728,-92.9556 c -18.991,-31.9848 -17.9915,-31.9848 -24.9881,-45.9781 -12.4429,-24.6323 -22.4845,-50.4057 -29.9857,-76.9633 -7.565,-40.619 -39.3428,-72.3967 -79.9618,-79.9618 -10.2736,-1.5041 -20.7116,-1.5041 -30.9852,0 -13.6801,1.2764 -26.9501,5.3595 -38.9814,11.9943 -494.6209,303.607 -827.537,812.514 -907.5667,1387.3377 -79.6234,12.7864 -157.4586,34.9292 -231.8893,65.9685 -46.6656,20.1295 -68.1535,74.2969 -47.9771,120.9423 20.0935,46.7146 74.5841,67.8804 120.9422,46.9776 149.311,-63.6997 672.8271,-174.9163 1139.456,253.8788 l -39.9809,-7.9962 h -245.8826 l -40.9804,5.9971 c -32.5077,4.8826 -60.5363,25.437 -74.9642,54.9738 -18.6674,44.4761 0.6303,95.7903 43.979,116.9441 190.7273,99.545 341.07,262.1018 425.4445,460.0084 84.3746,197.9067 97.5678,418.9351 37.3345,625.4734 -7.6716,30.1487 -17.0149,59.8471 -27.9866,88.9576 -9.9952,27.3203 -20.9899,53.3078 -32.9842,77.9627 v 7.9962 c -11.5192,23.4134 -23.8542,46.4165 -36.9824,68.9671 l -5.9971,8.9957 c -12.4941,21.4047 -26.1757,42.0938 -40.9805,61.9704 l -5.9971,8.9957 c -14.7827,18.7723 -30.1154,37.1048 -45.9781,54.9738 l -6.9966,7.9962 c -15.5625,17.3897 -31.9048,34.0655 -48.9766,49.9761 l -7.9962,6.9967 -60.9709,49.9761 c -17.9914,12.9938 -36.9824,26.9871 -55.9733,38.9814 h -7.9962 c -19.3011,12.5034 -39.3267,23.8512 -59.9713,33.9838 h -5.9972 c -20.837,11.0012 -42.1841,21.0076 -63.9694,29.9857 l -67.9676,24.988 -72.9652,21.9895 -66.968,14.9929 h -6.9966 l -65.9685,9.9952 h -8.9958 c -20.9899,0 -42.9794,0 -63.9694,5.9971 h -131.937 c -102.2364,-3.912 -203.31,-23.116 -299.8569,-56.9728 -23.298,-8.5487 -46.3001,-17.8829 -68.9671,-27.9866 l -37.9818,-17.9914 c -290.7919,-138.8046 -494.2844,-412.2477 -543.7404,-730.6512 24.988,-65.9685 170.9184,-351.832 742.6454,-351.832 120.9423,0 361.8273,-231.8893 391.813,-345.8349 v -27.9867 c 0,-60.9709 -34.9833,-76.9632 -168.9194,-141.9322 -168.7343,-73.2584 -327.3035,-167.9967 -471.7748,-281.8655 l -26.9871,-25.9875 c -11.9942,-12.9938 -23.9885,-23.9886 -33.9838,-33.9838 l -29.9856,-28.9862 c -17.7748,-28.9908 -39.6588,-55.2515 -64.969,-77.9628 -22.1399,-18.8623 -45.5141,-36.226 -69.9666,-51.9752 -41.7522,-169.3829 -41.7522,-346.3708 0,-515.7537 13.4413,-42.9365 -6.5282,-89.2488 -46.9776,-108.9481 -26.3477,-12.0181 -56.6127,-12.0181 -82.9604,0 -200.6242,94.4768 -382.4747,224.5152 -536.7437,383.8168 -26.3346,-151.0758 -35.3886,-304.658 -26.9872,-457.7815 1.5337,-8.5946 1.5337,-17.3929 0,-25.9875 -6.8215,-29.7826 -27.699,-54.3882 -55.9732,-65.9685 -23.9886,-8.9957 -56.9728,-21.9895 -170.9184,54.9737 -92.9137,65.8961 -179.8719,139.8106 -259.876,220.8946 -89.9202,91.0087 -172.1613,189.2968 -245.8826,293.8597 -169.2031,238.4522 -289.1529,508.2543 -352.8315,793.6211 v 17.9914 c -10.124,54.7335 -18.7896,109.7267 -25.9876,164.9213 -22.2066,118.5052 -36.233,238.3979 -41.98,358.8287 v 12.9938 c 3.1348,655.3816 251.5295,1285.8417 696.2722,1767.2342 444.7427,481.3926 1053.6025,778.8307 1706.6869,833.7455 653.0844,54.9147 1303.0641,-136.6736 1821.9496,-537.0392 518.8855,-400.3656 869.0729,-980.4938 981.6057,-1626.1495 0,-23.9886 5.9971,-47.9771 8.9957,-72.9652 v -24.988 c 50.8892,-436.5786 -7.4997,-878.9608 -169.9189,-1287.3854 z M 3309.8229,1599.4033 h -10.9948 l -60.9709,-22.989 -22.989,-7.9962 -58.9719,-17.9914 -18.9909,-5.9971 -77.9628,-17.9915 h -14.9928 l -64.969,-16.9918 h -22.989 l -65.9685,-6.9967 h -89.9571 c 57.4283,-349.1341 215.4816,-673.9248 454.7829,-934.5538 0,7.9961 0,16.9918 -7.9962,24.988 -7.9962,7.9962 -4.9976,13.9933 -6.9966,21.9895 -1.9991,7.9962 -6.9967,22.9891 -9.9953,34.9833 l -5.9971,20.99 c 0,13.9933 -6.9967,26.9871 -9.9952,40.9804 -2.9986,13.9934 0,11.9943 0,16.9919 l -11.9943,59.9714 v 171.9179 c -0.5478,3.6444 -0.5478,7.3503 0,10.9948 v 253.8788 c 0,3.9981 0,30.9852 7.9962,45.978 0,15.9924 6.9966,32.9843 10.9947,48.9766 v 12.9938 c 0,12.9938 6.9967,26.9872 10.9948,39.981 v 10.9947 l 14.9928,49.9761 v 9.9953 l 14.9929,40.9804 c 2.1124,4.8375 3.785,9.8554 4.9976,14.9928 6.9966,14.9929 12.9938,30.9853 19.9904,46.9776 6.9967,16.9919 15.9924,33.9838 23.9886,50.9757 v 5.9971 z m 48.9766,-657.686 c 9.9489,-185.9428 52.1543,-366.5895 129.9379,-537.7433 0.2871,-1.9888 0.2871,-4.0084 0,-5.9972 l -18.0641,45.8027 c -0.2871,-1.9888 31.7704,-81.7958 32.0575,-83.7845 5.9971,10.9947 11.9942,22.989 19.9904,35.9828 19.9905,33.9838 39.9809,65.9685 60.9709,99.9523 152.5567,229.8625 323.7161,446.8205 511.7557,648.6903 245.8826,277.8674 478.7714,539.7423 643.6927,941.5505 3.9981,27.9867 6.9966,55.9733 8.9957,83.9599 0.5255,6.6531 0.5255,13.3374 0,19.9905 v 190.9089 c 0,10.9947 0,40.9804 -6.9967,60.9709 l 36.9824,33.9837 c 0,28.9862 -9.9952,56.9728 -15.9924,85.959 -5.9971,29.9857 -13.9933,58.9718 -21.9895,87.958 l -8.9957,27.9866 c -5.9971,19.9905 -12.9938,39.981 -19.9904,59.9714 -6.9967,19.9905 -6.9967,20.99 -10.9948,30.9852 l -21.9895,56.9728 c -3.7244,9.9228 -8.0641,19.6037 -12.9938,28.9862 -9.9952,22.989 -20.99,44.9785 -31.9847,66.968 l -8.9957,17.9914 c -14.6802,28.5232 -30.3489,56.5268 -46.9776,83.9599 l -12.9938,19.9905 -39.9809,61.9704 c -13.9933,19.9905 -12.9938,17.9914 -18.9909,27.9866 l -39.981,53.9743 -20.9899,26.9871 c -14.9929,18.9909 -29.9857,37.9819 -45.9781,55.9733 -15.9924,17.9914 -12.9938,14.9928 -18.9909,21.9895 l -5.9972,6.9966 c 0,-17.9914 0,-35.9828 6.9967,-54.9737 6.9967,-18.991 0,-9.9952 0,-14.9929 v -268.8716 c 0,-7.9962 0,-36.9823 -6.9967,-55.9733 0.4271,-5.3222 0.4271,-10.6701 0,-15.9923 -6.6974,-43.099 -15.7061,-85.8069 -26.9871,-127.939 v -15.9923 c 0,-18.991 -10.9947,-37.9819 -16.9919,-55.9733 v -8.9957 c -6.6635,-21.3231 -14.6596,-42.3131 -23.9885,-62.97 -1.9139,-5.1824 -4.2541,-10.1971 -6.9967,-14.9928 -7.1622,-18.0241 -15.1672,-35.7018 -23.9885,-52.9747 l -5.9972,-12.9938 c -9.9952,-19.9905 -21.9895,-40.9804 -33.9837,-61.9704 l -6.9967,-11.9943 -32.9842,-50.9757 -9.9953,-13.9933 c -14.106,-20.6404 -29.1134,-40.6502 -44.9785,-59.9713 l -6.9967,-7.9962 -53.9742,-52.9747 -13.9933,-14.9929 c -18.2427,-19.4044 -37.2486,-38.0769 -56.9728,-55.9733 l -18.9909,-15.9923 -9.9953,-12.9938 c -12.9938,-23.9886 -27.9866,-46.9776 -42.9795,-69.9666 -2.6605,-3.0894 -5.0045,-6.4379 -6.9966,-9.9952 -15.9924,-22.6559 -32.9843,-45.6449 -50.9757,-68.9671 l -5.9971,-7.9962 c -38.9807,-49.2589 -81.045,-95.997 -125.9399,-139.9332 -262.7175,-237.3515 -403.527,-581.1032 -382.8172,-934.5539 z m 140.9327,2941.5957 c 22.9913,-18.538 45.3276,-37.8739 66.968,-57.9724 l 5.9972,-5.9971 c 19.9904,-18.9909 39.9809,-39.9809 57.9723,-59.9714 l 6.9966,-7.9961 c 18.0731,-20.0912 35.0881,-41.1096 50.9757,-62.97 l 5.9971,-7.9962 c 15.9924,-21.9895 30.9853,-43.979 44.9786,-65.9685 l 5.9971,-8.9957 c 13.9556,-22.0905 26.9613,-44.767 38.9814,-67.9675 v -7.9962 c 11.9943,-23.9886 23.9885,-47.9771 33.9838,-71.9657 v -5.9971 c 9.9952,-24.9881 19.9904,-50.9757 28.9861,-75.9637 8.9957,-25.9876 16.9919,-52.9747 23.9886,-78.9623 109.0771,-391.5887 -0.8845,-811.5808 -287.8626,-1099.4751 87.6334,23.8183 170.718,61.9832 245.8826,112.946 l 8.9957,6.9967 30.9852,24.9881 45.9781,44.9785 12.9938,14.9928 c 9.8468,9.8485 19.1877,20.1902 27.9866,30.9852 l 14.9929,17.9915 c 7.9961,8.9957 14.9928,18.9909 21.9895,27.9866 l 14.9928,19.9905 c 5.9971,8.9957 12.9938,17.9914 18.9909,27.9866 l 12.9938,19.9904 37.9819,28.9862 c 4.0536,6.7861 7.7242,13.7937 10.9948,20.99 l 14.9928,27.9866 22.989,48.9766 c 3.1,6.8233 5.7706,13.8336 7.9962,20.99 0,8.9957 7.9962,18.991 10.9948,27.9867 l 7.9961,20.9899 8.9957,27.9867 5.9972,19.9904 c 0,9.9953 0,19.9905 7.9962,29.9857 7.9962,9.9953 0,12.9938 0,18.991 0,5.9971 0,20.9899 6.9966,31.9847 v 15.9924 c 2.9724,12.8253 4.9771,25.8557 5.9972,38.9813 v 231.8893 c -0.4944,4.9854 -0.4944,10.0075 0,14.9929 v 80.9613 c 0.4816,8.6558 0.4816,17.3318 0,25.9876 0.4815,3.9836 0.4815,8.0107 0,11.9943 0.5574,8.32 0.5574,16.6681 0,24.9881 v 10.9947 c 0,3.9981 0,16.9919 -4.9976,24.9881 v 8.9957 l -5.9972,25.9876 c -7.7907,33.9394 -17.8076,67.3291 -29.9857,99.9523 l -5.9971,17.9914 v 18.9909 l -100.9518,75.9638 -79.9618,55.9732 -78.9623,50.9757 -48.9767,27.9866 -29.9856,17.9914 -48.9767,25.9876 -28.9861,14.9929 -47.9771,18.9909 -27.9867,13.9933 -43.979,17.9914 -84.9594,32.9843 -21.9895,7.9962 z m -983.5305,-1332.364 -36.9823,24.9881 h -114.9451 l -77.9628,6.9967 h -6.9967 c -26.9871,0 -51.9752,7.9962 -77.9628,11.9942 h -17.9914 l -62.9699,13.9934 h -9.9952 c -22.9891,5.9971 -43.979,12.9938 -64.969,19.9904 h -14.9929 c -17.2687,5.5609 -34.2778,11.8977 -50.9756,18.991 h -9.9953 c -18.3497,7.5325 -36.3586,15.8699 -53.9742,24.988 l -11.9943,5.9972 -39.9809,21.9895 -9.9952,5.9971 -51.9752,33.9838 -31.9847,24.988 -7.9962,6.9967 c -11.9943,8.9957 -22.989,18.9909 -33.9838,28.9862 l -37.9818,37.9818 -24.9881,28.9862 c -6.9967,7.9962 -12.9938,16.9919 -18.9909,24.9881 l -4.9977,6.9966 -17.9914,25.9876 -12.9938,21.9895 v -47.9771 c 0.4887,-2.643 0.4887,-5.3532 0,-7.9962 v -147.9293 c 3.2442,-25.8945 -5.1777,-51.8925 -22.989,-70.9662 -17.012,-19.8008 -41.8627,-31.1299 -67.9675,-30.9852 -190.746,5.0335 -370.5992,-88.6715 -475.7729,-247.8816 243.9994,-112.7351 525.9678,-108.6912 766.634,10.9947 l 50.9757,21.9895 18.9909,7.9962 31.9847,11.9943 21.9895,7.9962 27.9867,8.9957 22.989,6.9966 26.9871,7.9962 22.989,5.9972 25.9876,5.9971 h 22.989 l 24.9881,5.9971 h 430.7944 z M 1803.542,1363.5159 c -9.4002,91.0478 -9.4002,182.8215 0,273.8693 h -4.9977 l -60.9708,-18.991 h -10.9948 c -20.99,-5.9971 -41.98,-9.9952 -62.9699,-14.9928 h -7.9962 c -42.1636,-11.1486 -84.8646,-20.1559 -127.9389,-26.9871 84.636,-79.9768 177.0511,-151.2972 275.8683,-212.8984 z M 365.2286,2909.7777 c -11.5511,-81.2191 -11.5511,-163.664 0,-244.8831 5.9972,-49.9761 13.9933,-99.9522 21.9895,-137.9341 -0.4676,-1.9717 -0.4676,-4.0254 0,-5.9971 v -5.9972 c 0,-23.9885 19.9905,-130.9375 23.9886,-148.9289 v -15.9923 c 58.7058,-260.0175 168.071,-505.9194 321.8463,-723.6546 l 5.9972,-8.9957 c 67.256,-94.5814 142.1368,-183.5024 223.8931,-265.8731 53.9531,-54.9348 111.3771,-106.3493 171.9179,-153.9265 0,167.9199 22.989,411.8034 109.9475,520.7514 5.4907,7.8183 12.663,14.3075 20.99,18.991 l 9.9952,5.9971 c 6.5182,2.4549 13.1974,4.4587 19.9905,5.9971 h 161.9227 c 128.9855,3.864 255.5592,35.9339 370.8229,93.9552 17.1046,10.3038 33.7775,21.3078 49.9762,32.9842 20.3058,12.9526 39.6775,27.3144 57.9723,42.9795 31.9847,26.9871 70.9661,64.969 141.9322,134.9356 l 26.9872,25.9876 45.978,40.9804 c 12.9938,9.9953 25.9876,20.99 40.9804,30.9852 l 7.9962,5.9972 39.9809,27.9866 h 8.9957 c 14.9929,10.9948 30.9852,19.9905 46.9776,29.9857 l 11.9943,7.9962 48.9766,27.9866 58.9718,32.9843 48.9767,24.988 8.9957,5.9972 44.9785,21.9895 h -239.8855 c -25.9876,0 -52.9747,0 -79.9618,-7.9962 h -56.9728 l -25.9876,-5.9971 h -16.9919 l -25.9876,-5.9972 -16.9919,-4.9976 -25.9876,-6.9967 -17.9914,-5.9971 -32.9842,7.9962 c -5.8605,-1.391 -11.5565,-3.4014 -16.9919,-5.9971 l -29.9857,-10.9948 -13.9933,-5.9971 -38.9814,-18.991 c -325.5055,-164.1671 -713.054,-146.7407 -1022.5119,45.9781 -34.6443,24.039 -47.9414,68.9165 -31.9847,107.9484 106.458,235.9128 329.4891,398.1519 586.7199,426.7963 -12.9938,469.7757 276.8678,908.5662 756.6388,1136.4574 l 32.9842,16.9919 h 4.9977 c 220.9178,119.0508 468.7407,179.2856 719.6564,174.9165 h 20.99 c 269.1759,-4.67 534.5281,-64.5444 779.6278,-175.916 l 17.9914,-7.9962 63.9694,-29.9857 33.9838,-17.9914 51.9752,-26.9871 87.958,-50.9756 89.9571,-57.9724 90.9565,-63.9694 c 31.1323,-23.0265 61.7907,-46.6868 91.9561,-70.9662 l 9.9953,-10.9947 c 26.9871,-21.9895 52.9747,-43.979 77.9628,-66.968 l 16.9918,-15.9924 c 26.9872,-24.9881 52.9748,-49.9761 77.9628,-75.9637 l 11.9943,-10.9948 77.9628,-85.9589 c 23.9885,-26.9872 45.978,-53.9743 67.9675,-81.9609 4.0273,-5.5707 8.3655,-10.91 12.9938,-15.9924 20.99,-27.9866 41.98,-56.9728 60.9709,-84.9594 2.1262,-5.9024 4.8034,-11.5914 7.9962,-16.9919 l 54.9738,-85.959 v -7.9962 c 17.9914,-29.9856 34.9833,-60.9708 50.9756,-90.9565 0,-4.9976 0,-9.9953 7.9962,-13.9934 14.9928,-30.9852 30.9852,-62.9699 43.979,-93.9551 v -6.9967 c 14.9929,-32.9842 27.9866,-66.968 39.9809,-99.9522 9.3289,-22.6559 17.3251,-45.6449 23.9886,-68.9671 v 143.9313 c 0.4914,3.983 0.4914,8.0112 0,11.9942 0,28.9862 0,56.9728 -4.9976,84.9595 0.4922,7.3216 0.4922,14.6679 0,21.9895 0,29.9857 -5.9972,60.9709 -8.9957,89.957 v 17.9915 c 0,25.9875 -6.9967,50.9756 -11.9943,76.9632 v 18.9909 c 0,28.9862 -10.9948,56.9728 -16.9919,84.9595 v 18.9909 l -17.9914,71.9657 c 0.4525,4.9874 0.4525,10.0054 0,14.9928 -6.9304,26.198 -14.5964,52.1959 -22.989,77.9628 l -5.9972,18.9909 c -7.0615,22.8549 -14.7272,45.5187 -22.989,67.9676 v 9.9952 c -8.9957,23.9885 -17.9914,47.9771 -27.9866,70.9661 0,4.9976 0,10.9948 -6.9967,16.9919 -8.9957,22.989 -18.9909,44.9785 -28.9862,66.968 C 4449.2789,4309.1097 3778.5991,4923.8162 2718.1053,4892.831 1570.6531,4859.8468 565.1332,4009.2528 378.2224,2913.7758 Z m 4830.6938,277.8674 v 25.9876 c 0,22.989 -4.9976,45.978 -6.9966,65.9685 -90.9677,506.7008 -339.6879,971.7114 -710.6545,1328.6491 -370.9667,356.9378 -845.2156,587.5556 -1355.0452,658.9318 -509.8296,71.3761 -1029.177,-20.1383 -1483.9026,-261.4791 C 1184.5979,4764.3622 817.74,4385.5325 591.1208,3923.2939 l 30.9852,42.9795 c 16.9919,23.9885 34.9833,46.9775 51.9752,69.9666 l 6.9966,8.9957 60.9709,74.9642 17.9914,20.99 50.9757,57.9723 15.9924,16.9919 c 21.3231,22.6558 43.3126,45.6448 65.9685,68.967 l 17.9914,16.9919 c 17.9914,17.9914 35.9828,35.9829 54.9737,52.9747 l 13.9934,19.9905 84.9594,74.9642 86.9585,68.9671 78.9623,58.9718 c 25.9876,18.991 52.9747,36.9824 79.9618,54.9738 l 108.948,67.9675 c 27.9867,16.6587 55.9733,32.6511 83.9599,47.9771 l 22.989,11.9943 c 21.9895,12.9938 44.9786,23.9886 67.9676,35.9828 l 23.9885,11.9943 104.9499,47.9771 76.9633,31.9847 25.9876,10.9948 88.9575,31.9847 99.9523,30.9852 25.9876,6.9967 79.9618,21.9895 h 18.9909 l 99.9523,22.989 h 23.9886 c 26.4454,6.0518 53.1203,11.0533 79.9618,14.9928 h 24.9881 c 33.1623,5.7123 66.4963,10.3791 99.9523,13.9934 h 17.9914 l 85.9589,7.9961 h 26.9871 l 99.9523,5.9972 h 78.9623 c 434.0332,16.7537 863.5684,-93.1047 1236.2607,-316.1877 372.6923,-223.0829 672.4478,-549.757 862.7373,-940.2125 250.5369,-541.6636 286.2576,-1158.2032 99.9523,-1725.1764 0,-10.9948 -6.9967,-20.99 -10.9948,-30.9852 -20.232,-125.1172 -50.3112,-248.4417 -89.9571,-368.8239 66.5941,93.449 122.579,194.0205 166.9204,299.8568 151.4334,384.6765 203.6786,801.2633 151.9274,1211.4217 z"
     id="path6-5"
     style="display:none;fill:#00ff00;stroke-width:0.999523"
     sodipodi:nodetypes="ccccccccccccccccccccccscccccccccccccccccccccccsccccccscsccccccccccccccccccccccssscccccccccccccccccssccsccccsccscccccccccccccccccccccscccccscccscccccccsscssscccsccccccccccccccccccccccccccccccccccccccccccccccccccccccccccccsscccccccccscccccccccccccccccccccccscccccccccccccccccccccccccccccccccccccccccccccccccccccccsccccccccccccccccccccccccccccscccccccccccccccccccccccccccccccccccccccccccccccccccccscscccccccccccccccscssscccccccscccccccccccccccccccccccccccccccscccccc"
     sodipodi:insensitive="true" />
  <path
     id="path6"
     style="display:inline;fill:url(#linearGradient18);stroke-width:0.331164"
     d="m 1147.7944,3.6228489 c -16.5025,1.49044 -34.6606,13.9455501 -49.7461,25.9187101 -33.8381,26.85684 -69.5131,51.20547 -113.78506,102.923801 -81.5374,93.39396 -135.03998,210.85371 -151.91887,333.6827 -32.93578,1.82177 -72.75191,20.21318 -76.82969,21.85753 -33.48637,13.50319 -19.41967,71.37763 24.1737,55.63328 128.28366,-47.91109 272.57652,-10.49913 370.47622,83.10811 -33.741,-4.2511 -44.4989,-5.266 -101.2373,0.34629 -27.6732,3.30143 -55.46026,33.72648 5.7702,66.6385 47.2335,25.3885 90.4204,74.61248 106.949,107.14239 95.8813,153.62922 23.6304,392.94834 -154.5094,445.66434 -113.98556,44.528 -387.05009,45.1454 -461.90898,-255.49932 31.12858,-73.4235 115.12629,-98.92223 140.93613,-104.72722 42.98158,-7.60993 60.34275,-11.10402 105.11854,-11.84178 32.98916,-0.54356 89.66895,-47.22837 120.16695,-95.32311 28.9236,-45.32738 8.4978,-47.9371 -40.6208,-71.887 -203.83716,-94.98954 -178.7285,-133.59851 -236.85295,-169.58029 -17.11045,-59.38927 -10.27555,-123.77869 0,-170.88007 C 645.37247,314.5603 590.92655,330.69882 590.92655,330.69882 508.63674,361.07524 450.95676,421.98481 413.09346,457.86829 405.36094,419.329 403.29671,369.77346 402.89779,325.90456 406.52978,281.5317 382.88523,251.10107 328.97794,293.94127 155.47019,417.80519 44.766876,620.87204 27.757716,832.38771 -15.634234,1184.5276 198.47556,1544.795 518.54031,1692.2028 c 303.39558,148.3757 690.28319,95.3006 942.50949,-129.3057 210.1563,-180.4167 326.5695,-466.407 288.9737,-742.39162 -8.8808,-76.44612 -27.8708,-151.70843 -56.3214,-223.21669 -39.5976,-88.12522 -106.4247,-173.08396 -180.4821,-225.19107 -30.3107,-15.73242 -49.2443,4.66882 -46.0357,30.13279 -113.9826,-104.87956 -208.073,-227.59843 -284.4673,-373.219641 -7.2105,-16.82466 -17.0395,-24.0345901 -27.965,-25.3205601 -2.2762,-0.26791 -4.6001,-0.28039 -6.9576,-0.0675 z m -13.3439,82.6628501 c 159.8631,280.706511 298.44,369.515311 357.1953,441.324321 137.3589,169.55964 36.7811,417.21796 -74.7968,533.63868 C 1443.9414,822.37506 1353.7106,756.19495 1289.711,686.13562 1225.7114,616.07623 959.26664,432.75088 1134.4505,86.285699 Z m -88.1722,69.890141 c -47.59586,175.07732 -0.3285,310.10177 18.5429,343.41965 -57.6447,-24.64067 -114.24936,-34.10414 -169.22486,-33.78024 15.3917,-109.02752 66.5955,-224.91331 150.68196,-309.63941 z M 343.87794,364.81185 c 0.1923,40.10624 8.63859,188.21817 65.64907,181.88979 82.28898,-2.0529 165.66636,12.28011 224.55242,79.9419 48.7385,51.98873 107.10323,84.89108 168.46042,116.02483 -24.58401,4.96628 -124.71938,27.37918 -247.13856,-39.58643 -88.76794,-33.60097 -207.20374,-34.01741 -310.82672,38.10678 -24.16163,26.77723 45.49159,105.59545 75.10717,125.09165 38.64303,27.63188 77.28735,38.66051 115.93037,44.95191 -2.678,183.38012 125.53079,327.89222 277.10049,389.32942 197.19764,97.1753 436.2724,46.1946 610.8056,-75.5479 124.2262,-84.1254 224.063,-206.5763 267.8537,-350.2108 4.9951,157.3205 -29.7054,319.511 -130.1647,444.5985 -143.4205,192.8433 -391.7762,288.8666 -628.26019,267.9077 C 487.39596,1565.0666 167.12317,1301.2289 97.985166,958.80158 86.220376,894.1788 87.219586,802.54714 110.0293,722.53785 146.96802,582.37009 230.65329,455.15417 343.87794,364.81185 Z m 221.54816,54.97216 c -3.1306,26.33412 -3.14216,53.99068 0,90.74024 -28.40462,-8.38407 -59.68064,-14.47128 -91.40139,-20.20249 28.04165,-26.49796 58.66119,-50.12803 91.40139,-70.53775 z m 1018.3317,103.65238 c 102.9192,147.52085 124.8908,334.6818 105.6403,500.72201 -17.7451,170.4466 -102.1025,331.4129 -220.7566,453.8136 -205.9953,214.6837 -535.23276,297.7579 -818.42527,206.5268 -210.23829,-64.3161 -390.59568,-218.7667 -486.49205,-416.6064 92.51872,132.9241 208.7526,236.6853 357.82493,301.3596 140.84806,66.255 308.66148,91.4455 474.39843,73.0158 325.18206,-52.5582 574.27256,-264.3131 639.17546,-562.2648 35.5307,-145.69322 24.8496,-300.60058 -22.856,-442.12938 -6.9653,-28.99632 -16.2356,-76.6405 -28.5092,-114.43723 z M 1156.452,696.42575 c 209.7014,57.18406 241.1462,312.23395 184.2284,439.99755 -34.2555,31.9341 -132.0195,104.1201 -213.2684,119.8792 147.8774,-124.9158 203.1483,-379.45946 29.04,-559.87675 z m -713.48656,38.20571 c 44.47111,0.995 88.75231,11.85341 128.40626,32.26459 85.73943,41.11598 147.6938,25.98534 237.7929,28.75661 -4.57549,11.99306 -11.61777,28.10815 -27.41188,25.83326 -68.90222,-1.57931 -214.70331,9.54138 -280.57248,123.52206 -0.2295,-25.6905 0.46866,-51.48315 -0.38228,-77.09953 -4.04401,-22.40723 -29.58876,-24.23559 -47.41646,-24.61896 -55.99915,-3.5811 -109.33859,-34.72697 -139.9692,-81.74538 40.41974,-19.04183 85.08196,-27.90767 129.55314,-26.91265 z" />
  <circle
     style="display:none;opacity:0.42;fill:#ff00ff;stroke-width:7.74496"
     id="path7"
     cx="2783.4507"
     cy="2842.3708"
     r="2616.675"
     sodipodi:insensitive="true" />
</svg>
